<?xml version="1.0" standalone="no"?><!DOCTYPE svg PUBLIC "-//W3C//DTD SVG 1.1//EN" "http://www.w3.org/Graphics/SVG/1.1/DTD/svg11.dtd"><svg t="1556594123136" class="icon" style="" viewBox="0 0 1024 1024" version="1.1" xmlns="http://www.w3.org/2000/svg" p-id="1993" xmlns:xlink="http://www.w3.org/1999/xlink" width="128" height="128"><defs><style type="text/css"></style></defs><path d="M921.6 1017.6H102.4c-57.6 0-102.4-44.8-102.4-102.4V102.4C0 44.8 44.8 0 102.4 0h428.8c19.2 0 32 12.8 32 32s-12.8 32-32 32H102.4c-19.2 0-38.4 19.2-38.4 38.4v812.8c0 19.2 19.2 38.4 38.4 38.4h819.2c19.2 0 38.4-19.2 38.4-38.4V480c0-19.2 12.8-32 32-32s32 12.8 32 32v435.2c0 57.6-44.8 102.4-102.4 102.4z" fill="#1afa29" p-id="1994"></path><path d="M992 307.2H512c-19.2 0-32-12.8-32-32s12.8-32 32-32h480c19.2 0 32 12.8 32 32s-12.8 32-32 32z" fill="#1afa29" p-id="1995"></path><path d="M755.2 544c-19.2 0-32-12.8-32-32V32c0-19.2 12.8-32 32-32s32 12.8 32 32V512c0 19.2-12.8 32-32 32z" fill="#1afa29" p-id="1996"></path></svg>