<?xml version="1.0" standalone="no"?><!DOCTYPE svg PUBLIC "-//W3C//DTD SVG 1.1//EN" "http://www.w3.org/Graphics/SVG/1.1/DTD/svg11.dtd"><svg t="1557466553718" class="icon" style="" viewBox="0 0 1024 1024" version="1.1" xmlns="http://www.w3.org/2000/svg" p-id="2028" xmlns:xlink="http://www.w3.org/1999/xlink" width="128" height="128"><defs><style type="text/css"></style></defs><path d="M655.36 523.264c79.872-48.128 133.12-136.192 133.12-236.544C788.48 134.144 664.576 10.24 512 10.24S235.52 134.144 235.52 286.72c0 100.352 53.248 187.392 133.12 236.544C166.912 584.704 20.48 772.096 20.48 993.28c0 17.408 13.312 30.72 30.72 30.72s30.72-13.312 30.72-30.72c0-237.568 192.512-430.08 430.08-430.08s430.08 192.512 430.08 430.08c0 17.408 13.312 30.72 30.72 30.72s30.72-13.312 30.72-30.72c0-221.184-146.432-408.576-348.16-470.016zM296.96 286.72c0-118.784 96.256-215.04 215.04-215.04s215.04 96.256 215.04 215.04-96.256 215.04-215.04 215.04-215.04-96.256-215.04-215.04z" fill="#d81e06" p-id="2029"></path></svg>