<?xml version="1.0" standalone="no"?><!DOCTYPE svg PUBLIC "-//W3C//DTD SVG 1.1//EN" "http://www.w3.org/Graphics/SVG/1.1/DTD/svg11.dtd"><svg t="1557202872562" class="icon" style="" viewBox="0 0 1024 1024" version="1.1" xmlns="http://www.w3.org/2000/svg" p-id="3024" xmlns:xlink="http://www.w3.org/1999/xlink" width="200" height="200"><defs><style type="text/css"></style></defs><path d="M953.367909 0H167.618576A132.437333 132.437333 0 0 0 35.863909 131.754667v759.808A132.437333 132.437333 0 0 0 167.618576 1024h785.749333a34.133333 34.133333 0 0 0 34.133334-34.133333V34.133333a34.133333 34.133333 0 0 0-34.133334-34.133333zM167.618576 68.266667h750.933333v691.541333h-750.933333a130.389333 130.389333 0 0 0-63.488 17.066667V131.754667A64.170667 64.170667 0 0 1 167.618576 68.266667z m750.933333 887.466666h-750.933333a63.488 63.488 0 0 1 0-127.658666h750.933333V955.733333z" fill="#1afa29" p-id="3025"></path></svg>