<?xml version="1.0" standalone="no"?><!DOCTYPE svg PUBLIC "-//W3C//DTD SVG 1.1//EN" "http://www.w3.org/Graphics/SVG/1.1/DTD/svg11.dtd"><svg t="1555645543004" class="icon" style="" viewBox="0 0 1024 1024" version="1.1" xmlns="http://www.w3.org/2000/svg" p-id="1513" xmlns:xlink="http://www.w3.org/1999/xlink" width="200" height="200"><defs><style type="text/css"></style></defs><path d="M48.86528 768c25.12896 43.52 81.53088 66.51904 163.10272 66.51904 0 0 0 0 0.04096 0 36.67968 0 77.02528-5.16096 119.11168-14.00832 40.50944 124.12928 105.18528 203.48928 179.6096 203.48928s139.10016-79.36 179.6096-203.48928c42.10688 8.82688 82.47296 14.00832 119.13216 14.00832 0 0 0 0 0 0 81.53088 0 137.95328-22.99904 163.06176-66.51904 32.52224-56.36096 3.74784-151.04-94.90432-256 98.65216-104.96 127.42656-199.63904 94.90432-256-25.12896-43.52-81.53088-66.51904-163.10272-66.51904-36.67968 0-77.04576 5.16096-119.13216 14.00832-40.48896-124.12928-105.14432-203.48928-179.58912-203.48928s-139.10016 79.36-179.6096 203.48928c-42.10688-8.86784-82.49344-14.00832-119.13216-14.00832-81.57184 0-137.99424 22.99904-163.10272 66.51904-32.50176 56.36096-3.74784 151.04 94.90432 256-98.65216 104.96-127.44704 199.63904-94.90432 256zM510.73024 992.01024c-58.83904 0-112.51712-70.36928-148.0704-178.52416 48.08704-12.1856 98.11968-29.45024 148.0704-51.15904 49.95072 21.72928 99.96288 38.97344 148.0704 51.15904-35.55328 108.15488-89.21088 178.52416-148.0704 178.52416zM318.73024 512c0-37.25312 1.98656-73.50272 5.36576-108.58496 28.5696-19.90656 58.7776-39.30112 90.624-57.69216 31.49824-18.16576 63.71328-34.46784 96.01024-49.0496 32.29696 14.56128 64.512 30.84288 96.01024 49.0496 31.8464 18.37056 62.01344 37.76512 90.624 57.69216 3.39968 35.08224 5.36576 71.33184 5.36576 108.58496s-1.98656 73.50272-5.36576 108.58496c-28.5696 19.90656-58.7776 39.30112-90.624 57.69216-31.49824 18.16576-63.71328 34.46784-96.01024 49.0496-32.29696-14.56128-64.512-30.84288-96.01024-49.0496-31.8464-18.37056-62.01344-37.76512-90.624-57.69216-3.39968-35.08224-5.36576-71.33184-5.36576-108.58496zM289.85344 595.92704c-36.67968-27.5456-69.87776-55.84896-98.75456-83.92704 28.85632-28.09856 62.07488-56.38144 98.75456-83.92704-1.88416 27.32032-3.13344 55.1936-3.13344 83.92704s1.24928 56.60672 3.13344 83.92704zM328.99072 361.14432c5.87776-42.9056 14.15168-83.33312 24.45312-120.13568 38.23616 9.6256 77.9264 22.9376 117.82144 39.0144-24.39168 11.81696-48.70144 24.22784-72.54016 37.9904-24.73984 14.29504-47.616 28.71296-69.7344 43.13088zM550.13376 280.02304c39.89504-16.05632 79.58528-29.36832 117.82144-39.0144 10.30144 36.80256 18.55488 77.2096 24.45312 120.13568-22.07744-14.4384-44.99456-28.83584-69.7344-43.13088-23.79776-13.76256-48.128-26.17344-72.54016-37.9904zM731.58656 428.07296c36.70016 27.5456 69.89824 55.808 98.75456 83.92704-28.85632 28.09856-62.07488 56.38144-98.75456 83.92704 1.88416-27.32032 3.13344-55.1936 3.13344-83.92704s-1.24928-56.60672-3.13344-83.92704zM692.44928 662.85568c-5.89824 42.9056-14.15168 83.33312-24.45312 120.13568-38.23616-9.6256-77.9264-22.9376-117.82144-39.0144 24.41216-11.776 48.7424-24.22784 72.58112-37.9904 24.69888-14.29504 47.57504-28.71296 69.69344-43.13088zM398.72512 705.98656c23.83872 13.76256 48.16896 26.2144 72.58112 37.9904-39.89504 16.05632-79.58528 29.36832-117.82144 39.0144-10.30144-36.80256-18.55488-77.2096-24.45312-120.13568 22.07744 14.4384 44.9536 28.83584 69.69344 43.13088zM944.86528 752.00512c-18.82112 32.60416-66.88768 50.52416-135.35232 50.52416-33.792 0-70.98368-4.66944-109.81376-12.63616 12.67712-45.568 22.17984-96.256 28.0576-150.65088 49.47968-34.69312 91.2384-69.36576 126.07488-103.3216 81.01888 85.83168 119.23456 167.23968 91.0336 216.10496zM809.472 221.47072c68.48512 0 116.57216 17.96096 135.35232 50.52416 28.22144 48.86528-10.01472 130.27328-91.0336 216.10496-34.85696-33.91488-76.61568-68.64896-126.07488-103.3216-5.89824-54.39488-15.40096-105.08288-28.0576-150.65088 38.85056-7.96672 76.06272-12.63616 109.81376-12.63616zM510.73024 32.01024c58.83904 0 112.51712 70.36928 148.0704 178.52416-48.08704 12.1856-98.11968 29.45024-148.0704 51.15904-49.95072-21.72928-99.96288-38.97344-148.0704-51.15904 35.55328-108.15488 89.21088-178.52416 148.0704-178.52416zM76.57472 271.99488c18.82112-32.60416 66.88768-50.52416 135.35232-50.52416 33.792 0 70.98368 4.66944 109.83424 12.63616-12.67712 45.568-22.17984 96.256-28.0576 150.65088-49.47968 34.69312-91.2384 69.36576-126.07488 103.3216-81.01888-85.83168-119.23456-167.23968-91.0336-216.10496zM167.60832 535.90016c34.85696 33.91488 76.61568 68.64896 126.07488 103.3216 5.87776 54.39488 15.40096 105.08288 28.0576 150.65088-38.8096 7.96672-76.00128 12.63616-109.79328 12.63616 0 0-0.04096 0-0.04096 0-68.48512 0-116.57216-17.96096-135.35232-50.52416-28.20096-48.86528 10.01472-130.27328 91.0336-216.10496zM510.73024 591.99488c44.09344 0 79.99488-35.88096 79.99488-79.99488s-35.90144-79.99488-79.99488-79.99488-79.99488 35.88096-79.99488 79.99488 35.90144 79.99488 79.99488 79.99488zM510.73024 463.99488c26.46016 0 48.00512 21.54496 48.00512 48.00512s-21.54496 48.00512-48.00512 48.00512-48.00512-21.54496-48.00512-48.00512 21.54496-48.00512 48.00512-48.00512z" p-id="1514"></path></svg>