<?xml version="1.0" standalone="no"?><!DOCTYPE svg PUBLIC "-//W3C//DTD SVG 1.1//EN" "http://www.w3.org/Graphics/SVG/1.1/DTD/svg11.dtd"><svg t="1557734003106" class="icon" style="" viewBox="0 0 1024 1024" version="1.1" xmlns="http://www.w3.org/2000/svg" p-id="2997" xmlns:xlink="http://www.w3.org/1999/xlink" width="200" height="200"><defs><style type="text/css"></style></defs><path d="M947.2 947.2H76.8c-42.496 0-76.8-34.304-76.8-76.8V358.4c0-42.496 34.304-76.8 76.8-76.8h870.4c42.496 0 76.8 34.304 76.8 76.8v512c0 42.496-34.304 76.8-76.8 76.8zM76.8 332.8c-14.336 0-25.6 11.264-25.6 25.6v512c0 14.336 11.264 25.6 25.6 25.6h870.4c14.336 0 25.6-11.264 25.6-25.6V358.4c0-14.336-11.264-25.6-25.6-25.6H76.8z" fill="#1296db" p-id="2998"></path><path d="M384 332.8H230.4V122.88c0-14.336 11.264-25.6 25.6-25.6s25.6 11.264 25.6 25.6v158.72h51.2V122.88c0-14.336 11.264-25.6 25.6-25.6s25.6 11.264 25.6 25.6v209.92zM793.6 332.8h-153.6V122.88c0-14.336 11.264-25.6 25.6-25.6s25.6 11.264 25.6 25.6v158.72h51.2V122.88c0-14.336 11.264-25.6 25.6-25.6s25.6 11.264 25.6 25.6v209.92z" fill="#1296db" p-id="2999"></path><path d="M489.984 777.728H409.088l-26.112-79.872H256.512l-25.6 79.872H150.016l127.488-348.672h87.552l124.928 348.672z m-124.416-137.216l-39.424-120.832c-2.56-7.68-4.608-17.92-5.632-30.208h-2.048c-1.024 10.24-3.072 19.968-6.144 29.696l-39.936 121.856h93.184zM559.616 777.728v-348.16h120.32c123.904 0 185.856 56.832 185.856 169.984 0 53.76-17.408 97.28-52.224 129.536-34.816 32.768-79.36 49.152-134.144 49.152h-119.808z m74.24-287.744V716.8h40.448c35.328 0 62.976-10.752 82.944-31.744 19.968-20.992 30.208-49.664 30.208-85.504 0-34.816-10.752-61.44-31.744-80.896-20.992-19.456-48.128-29.184-81.92-29.184h-39.936z" fill="#1296db" p-id="3000"></path></svg>