<?xml version="1.0" standalone="no"?><!DOCTYPE svg PUBLIC "-//W3C//DTD SVG 1.1//EN" "http://www.w3.org/Graphics/SVG/1.1/DTD/svg11.dtd"><svg t="1557822424524" class="icon" style="" viewBox="0 0 1024 1024" version="1.1" xmlns="http://www.w3.org/2000/svg" p-id="5981" xmlns:xlink="http://www.w3.org/1999/xlink" width="200" height="200"><defs><style type="text/css"></style></defs><path d="M825.26208 142.7456l-594.7392 0c-22.39488 0-40.54016 18.14528-40.54016 40.5504l0 4.5056c0 22.40512 18.14528 64.21504 40.54016 64.21504l25.81504 0L290.816 916.16256c0.74752 14.37696 12.60544 25.64096 27.00288 25.64096l423.51616 0c14.4384 0 26.3168-11.33568 27.00288-25.76384l31.36512-664.02304 25.55904 0c22.40512 0 40.56064-41.80992 40.56064-64.21504L865.82272 183.296C865.82272 160.90112 847.65696 142.7456 825.26208 142.7456zM399.04256 633.5488c-16.03584 9.32864-22.9888-5.0176-22.9888-5.0176-1.71008-7.9872-2.68288-16.2816-2.68288-24.832 0-61.16352 46.2336-111.0016 103.58784-112.5376l-40.47872-26.66496c-7.68-5.0688-10.0352-15.74912-5.2736-23.87968 4.77184-8.16128 14.85824-10.63936 22.50752-5.59104l69.79584 45.96736c3.67616 2.42688 6.28736 6.2976 7.28064 10.78272 0.98304 4.47488 0.256 9.19552-2.03776 13.09696l-43.35616 74.00448c-3.08224 5.28384-8.41728 8.192-13.88544 8.192-2.94912 0-5.91872-0.83968-8.61184-2.6112-7.68-5.05856-10.02496-15.73888-5.26336-23.88992l20.3776-34.78528c-39.82336 0.91136-71.94624 35.4816-71.94624 77.91616 0 4.03456 0.38912 7.92576 0.94208 11.776C407.00928 615.4752 410.69568 627.43552 399.04256 633.5488zM609.4336 720.36352c-5.7856 5.76512-12.2368 11.0592-19.41504 15.68768-51.42528 33.11616-118.38464 21.25824-150.72256-26.13248l-0.49152 48.47616c-0.11264 9.17504-7.80288 16.96768-17.23392 17.3568-9.4208 0.39936-16.97792-6.73792-16.87552-15.91296l0.83968-83.5584c0.06144-4.41344 1.90464-8.71424 5.12-11.9808 3.23584-3.21536 7.59808-5.19168 12.12416-5.38624l85.68832-3.60448c6.11328-0.26624 11.45856 2.64192 14.40768 7.22944 1.59744 2.48832 2.49856 5.43744 2.4576 8.6528-0.1024 9.19552-7.80288 16.95744-17.22368 17.3568l-40.30464 1.72032c22.34368 32.98304 68.80256 41.25696 104.48896 18.2784 3.36896-2.18112 6.4512-4.61824 9.39008-7.168 0 0 8.04864-9.5744 19.5072-3.09248C617.728 706.73408 609.4336 720.36352 609.4336 720.36352zM712.43776 625.00864l-69.7856 45.94688c-3.6864 2.41664-8.28416 3.29728-12.78976 2.42688-4.49536-0.8704-8.5504-3.38944-11.22304-7.04512l-50.85184-69.0688c-3.62496-4.9152-4.20864-10.97728-2.048-16.00512 1.16736-2.7136 3.13344-5.10976 5.80608-6.88128 7.69024-5.04832 18.432-2.99008 24.03328 4.608l23.90016 32.48128c14.8992-36.94592-4.15744-80.11776-43.1616-96.90112-3.6864-1.5872-7.424-2.77504-11.18208-3.7888 0 0-12.4416-1.34144-13.45536-14.45888-2.23232-18.42176 13.71136-19.13856 13.71136-19.13856 8.01792 1.59744 16.00512 3.98336 23.84896 7.35232 56.19712 24.17664 83.72224 86.34368 62.48448 139.63264l40.47872-26.66496c7.68-5.04832 18.432-2.99008 24.02304 4.608C721.8176 609.72032 720.11776 619.9808 712.43776 625.00864zM734.33088 283.24864 316.18048 283.24864l-5.72416-31.232 435.11808 0L734.33088 283.24864z" p-id="5982" fill="#1afa29"></path></svg>