<?xml version="1.0" standalone="no"?><!DOCTYPE svg PUBLIC "-//W3C//DTD SVG 1.1//EN" "http://www.w3.org/Graphics/SVG/1.1/DTD/svg11.dtd"><svg t="1557821799257" class="icon" style="" viewBox="0 0 1024 1024" version="1.1" xmlns="http://www.w3.org/2000/svg" p-id="4343" xmlns:xlink="http://www.w3.org/1999/xlink" width="200" height="200"><defs><style type="text/css"></style></defs><path d="M900 222.5H771.6v-48.2c0-39.8-35.4-69.8-82.4-69.8H338.8c-24.1 0-44.7 6.6-59.4 19.2-14.8 12.6-23 30.6-23 50.7v48.2H127.9c-13.3 0-24 10.7-24 24s10.7 24 24 24h32.4L209 847c0.6 39.5 33.6 71.5 74 71.5h442c38 0 69.7-33 73.9-76.9l62.8-571.1H900c13.3 0 24-10.7 24-24s-10.7-24-24-24z m-595.6-48.2c0-19 21.5-21.8 34.4-21.8h350.5c19.9 0 34.4 9.2 34.4 21.8v48.2H304.4v-48.2z m446.7 662.2v0.4c-1.5 16.1-11.9 33.6-26.1 33.6H283c-14.3 0-26-11-26-24.6v-1l-48.5-574.4h604.9l-62.3 566z" fill="#1296db" p-id="4344"></path><path d="M410.5 496.6c2.4 1.4 4.9 2 7.5 2 5.2 0 10.2-2.7 13-7.5l40-69.4c6.9-12 19.3-19.2 33.2-19.2 13.9 0 26.3 7.2 33.2 19.2l37 64-32.8-12.5c-7.7-3-16.4 0.9-19.4 8.7-3 7.7 0.9 16.4 8.7 19.4l53.4 20.4c3.3 1.3 6.8 2 10.3 2 3.9 0 7.7-0.8 11.3-2.5 6.9-3.2 12.2-9.1 14.6-16.4l16.7-51.2c2.6-7.9-1.7-16.3-9.6-18.9-7.9-2.6-16.3 1.7-18.9 9.6l-8.5 26-36.8-63.7c-12.3-21.4-34.5-34.2-59.2-34.2-24.7 0-46.8 12.8-59.2 34.2L405 476c-4.1 7.3-1.6 16.5 5.5 20.6zM621.9 538c-7.2 4.1-9.6 13.3-5.5 20.5l38.7 67c6.9 12 6.9 26.3 0 38.3-6.9 12-19.3 19.2-33.2 19.2h-69.3l19.9-22.5c5.5-6.2 4.9-15.7-1.3-21.2s-15.7-4.9-21.2 1.3l-37.8 42.8c-5.1 5.5-7.7 12.9-7.2 20.4 0.5 7.6 4.2 14.7 10.2 19.4l42 33.6c2.8 2.2 6.1 3.3 9.4 3.3 4.4 0 8.8-1.9 11.7-5.6 5.2-6.5 4.1-15.9-2.4-21.1L550.3 713h71.5c24.7 0 46.8-12.8 59.2-34.2 12.3-21.4 12.3-46.9 0-68.3l-38.7-67c-4.1-7.2-13.3-9.7-20.4-5.5zM332.3 558.2l29.8-7.6-34.6 59.9c-12.3 21.4-12.3 46.9 0 68.3S362 713 386.7 713H468c8.3 0 15-6.7 15-15s-6.7-15-15-15h-81.4c-13.9 0-26.3-7.2-33.2-19.2s-6.9-26.3 0-38.3l37.1-64.2 5.1 30.7c1.2 7.3 7.6 12.5 14.8 12.5 0.8 0 1.7-0.1 2.5-0.2 8.2-1.4 13.7-9.1 12.3-17.3l-8.5-50.8c-1.3-7.5-5.6-14.2-12-18.3-6.4-4.2-14.3-5.5-21.6-3.6l-58.3 14.8c-8 2-12.9 10.2-10.8 18.2 2.1 8 10.3 12.9 18.3 10.9z" fill="#1296db" p-id="4345"></path></svg>