<?xml version="1.0" standalone="no"?><!DOCTYPE svg PUBLIC "-//W3C//DTD SVG 1.1//EN" "http://www.w3.org/Graphics/SVG/1.1/DTD/svg11.dtd"><svg t="1557563729053" class="icon" style="" viewBox="0 0 1024 1024" version="1.1" xmlns="http://www.w3.org/2000/svg" p-id="1479" xmlns:xlink="http://www.w3.org/1999/xlink" width="128" height="128"><defs><style type="text/css"></style></defs><path d="M613.888 790.016c0 33.792 27.136 60.928 60.928 60.928 33.792 0 60.928-27.136 60.928-60.928 0-33.792-27.136-60.928-60.928-60.928-33.28 0-60.928 27.136-60.928 60.928z" fill="#f4ea2a" p-id="1480"></path><path d="M655.872 587.264c-187.392 6.656-264.192 202.24-264.192 202.24 111.616 222.72 283.648 201.728 283.648 201.728 199.68 3.584 282.112-201.728 282.112-201.728-107.52-226.816-301.568-202.24-301.568-202.24z m19.968 324.608c-67.072 0-121.344-54.272-121.344-121.344s54.272-121.344 121.344-121.344 121.344 54.272 121.344 121.344-54.272 121.856-121.344 121.344zM386.048 11.776c-161.792 0-292.864 36.864-292.864 82.944 0 45.568 131.072 82.944 292.864 82.944s292.864-36.864 292.864-82.944S547.84 11.776 386.048 11.776z m231.936 79.872c-10.24 11.776-44.544 14.848-55.808 16.384-23.04 2.56-61.952 0-76.288 0-28.672 0-53.248 1.536-53.248 1.536-2.048 0-9.728 1.536-16.896 0-2.56-0.512-5.632-1.024-9.728-7.168-4.096-4.096-10.752-11.264-11.776-12.288-1.024-1.024-1.536-1.536-1.024-2.56 1.536-3.584 13.824-4.096 14.848-4.096 15.36-0.512 42.496-6.656 42.496-6.656 6.656-1.024 44.544-11.264 63.488-13.824 49.152-6.656 77.824 2.56 81.408 3.584 5.632 2.048 6.144 2.56 7.168 3.584 3.584 3.584 11.776 12.8 14.848 15.36 3.072 3.072 1.024 5.632 0.512 6.144zM475.136 978.944c-26.112 2.048-53.76 3.584-82.432 3.584-134.656 0-251.392-26.624-287.232-62.976v11.776c0 46.08 131.072 82.944 286.72 82.944 45.568 0 87.552-3.072 124.928-8.704-13.824-7.168-27.648-15.872-41.984-26.624z" fill="#f4ea2a" p-id="1481"></path><path d="M324.096 793.088c-108.032-27.648-187.904-125.952-187.904-242.176 0-138.24 112.128-250.368 250.368-250.368 134.144 0 243.2 105.472 249.856 237.568l19.968-1.536s8.192-1.024 22.016-1.024V154.112c0-1.536 0-2.56-0.512-4.096-44.032 34.304-158.208 58.368-292.352 58.368-134.656 0-248.832-24.064-292.864-58.368-0.512 1.536-0.512 2.56-0.512 4.096v713.728c0 46.08 131.072 83.968 292.864 83.968 18.432 0 36.864-0.512 54.784-1.536-40.448-36.864-80.384-87.552-115.712-157.184z" fill="#f4ea2a" p-id="1482"></path><path d="M593.92 544.768C590.848 432.64 499.2 343.04 386.56 343.04 271.872 343.04 179.2 435.712 179.2 550.4c0 99.328 69.632 182.272 162.816 202.752 33.28-60.928 113.664-176.128 251.904-208.384z" fill="#f4ea2a" p-id="1483"></path></svg>