<?xml version="1.0" standalone="no"?><!DOCTYPE svg PUBLIC "-//W3C//DTD SVG 1.1//EN" "http://www.w3.org/Graphics/SVG/1.1/DTD/svg11.dtd"><svg t="1557823618396" class="icon" style="" viewBox="0 0 1024 1024" version="1.1" xmlns="http://www.w3.org/2000/svg" p-id="8431" xmlns:xlink="http://www.w3.org/1999/xlink" width="200" height="200"><defs><style type="text/css"></style></defs><path d="M512 672c60.8 0 108.8 41.6 124.8 96H768v-192h32c35.2 0 64-28.8 64-64s-28.8-64-64-64h-32V256h-131.2c-12.8 54.4-64 96-124.8 96s-108.8-41.6-124.8-96H256v192H224c-35.2 0-64 28.8-64 64s28.8 64 64 64h32v192h131.2c16-54.4 64-96 124.8-96z m320 96c0 35.2-28.8 64-64 64h-192v-32c0-35.2-28.8-64-64-64s-64 28.8-64 64v32H256c-35.2 0-64-28.8-64-64v-131.2c-54.4-12.8-96-64-96-124.8s41.6-108.8 96-124.8V256c0-35.2 28.8-64 64-64h192v32c0 35.2 28.8 64 64 64s64-28.8 64-64V192h192c35.2 0 64 28.8 64 64v131.2c54.4 12.8 96 64 96 124.8s-41.6 108.8-96 124.8V768z" fill="#597EF7" p-id="8432"></path><path d="M352 480h64c19.2 0 32 12.8 32 32s-12.8 32-32 32h-64c-19.2 0-32-12.8-32-32s12.8-32 32-32zM608 480h64c19.2 0 32 12.8 32 32s-12.8 32-32 32h-64c-19.2 0-32-12.8-32-32s12.8-32 32-32z" fill="#50E3C2" p-id="8433"></path></svg>