<?xml version="1.0" standalone="no"?><!DOCTYPE svg PUBLIC "-//W3C//DTD SVG 1.1//EN" "http://www.w3.org/Graphics/SVG/1.1/DTD/svg11.dtd"><svg t="1557744488606" class="icon" style="" viewBox="0 0 1024 1024" version="1.1" xmlns="http://www.w3.org/2000/svg" p-id="17168" xmlns:xlink="http://www.w3.org/1999/xlink" width="200" height="200"><defs><style type="text/css"></style></defs><path d="M503.27131 47.883098c-254.87774 0-462.371164 207.493424-462.371164 462.371164S248.39357 972.625426 503.27131 972.625426c254.87774 0 462.371164-207.493424 462.371164-462.371164S758.647832 47.883098 503.27131 47.883098zM503.27131 942.69849c-238.417925 0-432.444228-194.026303-432.444228-432.444228s194.026303-432.444228 432.444228-432.444228c238.417925 0 432.444228 194.026303 432.444228 432.444228S742.188018 942.69849 503.27131 942.69849z" p-id="17169" fill="#1afa29"></path><path d="M437.930833 455.388212 387.055041 455.388212c-5.486605-11.471992-12.469557-23.941549-20.948855-37.907453 61.849001-47.883098 94.269849-85.79055 97.262543-114.22114 0-19.452509-12.469557-30.924501-37.907453-33.917194L277.322942 269.342426c-11.471992 8.479299-11.471992 16.958597 0 25.437896l143.649294 0c13.965904 0 19.452509 3.990258 16.958597 12.469557-11.471992 25.437896-39.403799 54.86605-84.294204 88.783244-11.471992-16.958597-23.941549-33.917194-37.907453-50.875792-13.965904-5.486605-19.951291 0-16.958597 16.958597 16.958597 19.951291 36.411106 50.875792 59.35509 92.773502L260.364345 454.88943c-13.965904 8.479299-13.965904 16.958597 0 25.437896l92.773502 0 0 198.515343c2.992694 36.411106-19.951291 42.396493-67.335606 16.958597-13.965904 5.486605-16.958597 15.46225-8.479299 29.428154 70.3283 27.931807 104.245494 12.469557 101.252801-46.386751L378.575743 480.826108l54.86605 0c13.965904 5.486605 8.479299 39.403799-16.958597 101.252801 0 16.958597 8.479299 19.951291 25.437896 8.479299C478.830979 503.27131 477.334632 458.380906 437.930833 455.388212z" p-id="17170" fill="#1afa29"></path><path d="M480.327326 294.780321 598.538724 294.780321 581.580127 354.135412l-50.875792 0c-27.931807 0-42.396493 13.965904-42.396493 42.396493l0 219.464199c8.479299 13.965904 16.958597 13.965904 25.437896 0L513.745738 404.512421c0-16.958597 8.479299-25.437896 25.437896-25.437896l135.169995 0c19.452509 0 27.931807 8.479299 25.437896 25.437896l0 210.9849c8.479299 13.965904 16.958597 13.965904 25.437896 0l0-219.464199c2.992694-27.931807-11.471992-42.396493-42.396493-42.396493l-75.814905 0 16.958597-59.35509 114.22114 0c11.471992-8.479299 11.471992-16.958597 0-25.437896L480.327326 268.843643C468.855334 278.320507 468.855334 286.301023 480.327326 294.780321z" p-id="17171" fill="#1afa29"></path><path d="M636.446176 624.475402c-16.958597-5.486605-23.941549 0-20.948855 16.958597 39.403799 33.917194 77.311252 67.335606 114.22114 101.252801 16.958597 2.992694 22.445202-3.990258 16.958597-20.948855C709.268388 684.828057 672.857282 652.407209 636.446176 624.475402z" p-id="17172" fill="#1afa29"></path><path d="M614.998539 451.397954c-8.479299-16.958597-16.958597-16.958597-25.437896 0 5.486605 152.128592-44.890404 240.911836-152.128592 265.85095-8.479299 13.965904-5.486605 22.445202 8.479299 25.437896C564.621529 717.248904 620.983926 619.986361 614.998539 451.397954z" p-id="17173" fill="#1afa29"></path></svg>