<?xml version="1.0" standalone="no"?><!DOCTYPE svg PUBLIC "-//W3C//DTD SVG 1.1//EN" "http://www.w3.org/Graphics/SVG/1.1/DTD/svg11.dtd"><svg t="1557567027683" class="icon" style="" viewBox="0 0 1024 1024" version="1.1" xmlns="http://www.w3.org/2000/svg" p-id="3331" xmlns:xlink="http://www.w3.org/1999/xlink" width="200" height="200"><defs><style type="text/css"></style></defs><path d="M901.12 128l-381.44-76.8h-12.8-2.56l-381.44 76.8c-12.8 2.56-20.48 12.8-20.48 25.6v332.8c0 253.44 202.24 435.2 404.48 486.4h10.24c199.68-51.2 404.48-232.96 404.48-486.4v-332.8c0-12.8-7.68-23.04-20.48-25.6z m-30.72 358.4c0 222.72-179.2 386.56-358.4 435.2-179.2-48.64-358.4-209.92-358.4-435.2v-312.32l358.4-71.68 358.4 71.68V486.4z" p-id="3332" fill="#e6e6e6"></path><path d="M409.6 230.4c-28.16 0-56.32 7.68-81.92 20.48-15.36 7.68-17.92 28.16-5.12 40.96l87.04 87.04-30.72 30.72-87.04-87.04c-5.12-5.12-10.24-7.68-17.92-7.68-10.24 0-17.92 5.12-23.04 15.36-33.28 66.56-23.04 151.04 33.28 207.36 35.84 35.84 79.36 51.2 125.44 51.2 20.48 0 40.96-2.56 58.88-10.24l145.92 140.8 17.92 17.92c10.24 10.24 25.6 10.24 35.84 0l17.92-17.92 35.84-35.84 17.92-17.92c10.24-10.24 10.24-25.6 0-35.84l-17.92-17.92-145.92-140.8c23.04-64 7.68-135.68-40.96-186.88-33.28-35.84-79.36-53.76-125.44-53.76z m120.32 222.72c-7.68 17.92-2.56 38.4 12.8 53.76l145.92 140.8-35.84 35.84-145.92-140.8c-10.24-10.24-23.04-15.36-35.84-15.36-5.12 0-10.24 0-17.92 2.56-12.8 5.12-28.16 7.68-43.52 7.68-33.28 0-66.56-12.8-89.6-38.4-30.72-30.72-43.52-71.68-35.84-112.64l58.88 58.88c10.24 10.24 23.04 15.36 35.84 15.36 12.8 0 25.6-5.12 35.84-15.36l30.72-30.72c20.48-20.48 20.48-53.76 0-71.68l-58.88-58.88c7.68-2.56 15.36-2.56 23.04-2.56 33.28 0 66.56 12.8 89.6 38.4 35.84 33.28 46.08 87.04 30.72 133.12z" p-id="3333" fill="#e6e6e6"></path></svg>