<?xml version="1.0" standalone="no"?><!DOCTYPE svg PUBLIC "-//W3C//DTD SVG 1.1//EN" "http://www.w3.org/Graphics/SVG/1.1/DTD/svg11.dtd"><svg t="1557730896247" class="icon" style="" viewBox="0 0 1024 1024" version="1.1" xmlns="http://www.w3.org/2000/svg" p-id="2171" xmlns:xlink="http://www.w3.org/1999/xlink" width="200" height="200"><defs><style type="text/css"></style></defs><path d="M930.9 714.6c0 55.7-45.4 101.1-101.1 101.1H662.5c5.5-18.3 8.5-37.7 8.5-57.8V570.2c0-51.4-13-99.9-35.7-142.3 7.7-51.4 28-132 79-132 53.4 0 86.6 94.1 86.6 245.5h28.9c0-110.3-16-189.7-46-233.8 85.4 29.1 147.1 109.8 147.1 204.9v202.1z m-288.8 43.3c0 95.5-77.7 173.3-173.3 173.3H266.7c-95.5 0-173.3-77.7-173.3-173.3V570.2c0-125.1 84.2-230.6 198.8-263.5-41.5 47.7-68.8 133.9-68.8 234.7h28.9c0-133.1 52.9-245.5 115.5-245.5s115.5 112.4 115.5 245.5h28.9c0-100.8-27.3-187-68.8-234.7C558 339.6 642.2 445.2 642.2 570.2v187.7h-0.1z m-57.7-57.8h28.9v28.9h-28.9v-28.9z m0 57.8h28.9v28.9h-28.9v-28.9zM467.7 655.7l-30.1-50.2-2.1-3.3c-6.9-11.2-19.7-32-53.3-32s-46.4 20.8-53.3 32l-2.1 3.3 24 16c0.8-1.3 1.7-2.7 2.6-4.2 5.8-9.4 11.2-18.3 28.7-18.3s22.9 8.9 28.7 18.3c0.9 1.5 1.8 2.9 2.3 3.6l30.2 50.3h-46.7v28.9h81.1l32.9-65.7-25.8-12.9-17.1 34.2z m-132-27.8h-83.5v28.9h42.1l-38.4 48.2c-12.1 12.8-15.8 35.3-8.4 53 7.6 18.3 25.1 28.7 48.2 28.7H310v-28.9h-14.4c-11.3 0-18.5-3.7-21.5-10.9-3.5-8.4-0.6-18.7 2.8-22.2l40.6-50.6 7.4 29.5 28-7-17.2-68.7z m135.6 94.7c3.5 5.3 5.7 18.4 1.1 27-1.1 2.1-4.4 8.3-18 8.3h-66.2l18.7-18.7-20.4-20.4-52.2 52.2 50.8 67.8 23.1-17.3-26-34.7h72.2c26.8 0 38.8-14.8 43.5-23.6 10.2-19 6.3-43.4-2.6-56.6l-24 16zM237.8 137c0-15.9 13-28.9 28.9-28.9s28.9 13 28.9 28.9h28.9c0-23.9 19.4-43.3 43.3-43.3s43.3 19.4 43.3 43.3H440c0-15.9 13-28.9 28.9-28.9 15.9 0 28.9 13 28.9 28.9 0 71.7-58.3 130-130 130s-130-58.4-130-130zM645.4 307.2c-13 19-24.4 46.4-32.8 84.8-11.6-15.9-24.7-30.6-39-43.9 21.3-18.3 45.7-32.1 71.8-40.9z m-61-170.2c0-15.9 13-28.9 28.9-28.9s28.9 13 28.9 28.9H671c0-23.9 19.4-43.3 43.3-43.3s43.3 19.4 43.3 43.3h28.9c0-15.9 13-28.9 28.9-28.9s28.9 13 28.9 28.9c0 71.7-58.3 130-130 130S584.4 208.6 584.4 137zM787.2 277.9c51-26.5 86-79.7 86-141 0-31.9-25.9-57.8-57.8-57.8-16.1 0-30.8 6.7-41.3 17.4-13-19.2-35-31.8-59.8-31.8s-46.8 12.6-59.8 31.8c-10.5-10.7-25.1-17.4-41.3-17.4-31.9 0-57.8 25.9-57.8 57.8 0 61.3 35 114.6 86 141-33.2 10.3-63.8 27.8-90.2 51.4C519.4 305 482.8 287 443 276.7c49.7-26.9 83.5-79.4 83.5-139.8 0-31.9-25.9-57.8-57.8-57.8-16.1 0-30.8 6.7-41.3 17.4-13-19.2-35-31.8-59.8-31.8-24.9 0-46.8 12.6-59.8 31.8-10.5-10.7-25.1-17.4-41.3-17.4-31.9 0-57.8 25.9-57.8 57.8 0 60.4 33.8 112.9 83.5 139.8-130.5 33.7-227.6 152.3-227.6 293.5v187.7c0 111.5 90.7 202.2 202.2 202.2H469c80.4 0 149.8-47.3 182.4-115.5H830c71.7 0 130-58.3 130-130V512.4c-0.2-110-72.9-203.3-172.8-234.5z" fill="#1afa29" p-id="2172"></path></svg>