<?xml version="1.0" standalone="no"?><!DOCTYPE svg PUBLIC "-//W3C//DTD SVG 1.1//EN" "http://www.w3.org/Graphics/SVG/1.1/DTD/svg11.dtd"><svg t="1557822110537" class="icon" style="" viewBox="0 0 1024 1024" version="1.1" xmlns="http://www.w3.org/2000/svg" p-id="4592" xmlns:xlink="http://www.w3.org/1999/xlink" width="200" height="200"><defs><style type="text/css"></style></defs><path d="M896 956.928H126.464c-14.336 0-25.6-11.264-25.6-25.6V313.856c0-14.336 11.264-25.6 25.6-25.6H896c14.336 0 25.6 11.264 25.6 25.6v617.472c0 14.336-11.264 25.6-25.6 25.6z m-743.936-51.2H870.4V339.456H152.064v566.272z" p-id="4593" fill="#d81e06"></path><path d="M979.456 336.896H43.52c-14.336 0-25.6-11.264-25.6-25.6V112.64c0-14.336 11.264-25.6 25.6-25.6h935.936c14.336 0 25.6 11.264 25.6 25.6v198.656c0 14.336-11.264 25.6-25.6 25.6z m-910.336-51.2h884.736V138.24H69.12v147.456zM717.824 506.88H303.616c-14.336 0-25.6-11.264-25.6-25.6s11.264-25.6 25.6-25.6h414.208c14.336 0 25.6 11.264 25.6 25.6s-11.264 25.6-25.6 25.6zM717.824 647.168H303.616c-14.336 0-25.6-11.264-25.6-25.6s11.264-25.6 25.6-25.6h414.208c14.336 0 25.6 11.264 25.6 25.6s-11.264 25.6-25.6 25.6zM717.824 793.088H303.616c-14.336 0-25.6-11.264-25.6-25.6s11.264-25.6 25.6-25.6h414.208c14.336 0 25.6 11.264 25.6 25.6s-11.264 25.6-25.6 25.6z" p-id="4594" fill="#d81e06"></path></svg>