<?xml version="1.0" standalone="no"?><!DOCTYPE svg PUBLIC "-//W3C//DTD SVG 1.1//EN" "http://www.w3.org/Graphics/SVG/1.1/DTD/svg11.dtd"><svg t="1557540896384" class="icon" style="" viewBox="0 0 1024 1024" version="1.1" xmlns="http://www.w3.org/2000/svg" p-id="2036" xmlns:xlink="http://www.w3.org/1999/xlink" width="128" height="128"><defs><style type="text/css"></style></defs><path d="M926.421781 1024H97.578219c-13.254184 0-23.994644-10.74046-23.994644-23.994644V23.994644c0-13.254184 10.74046-23.994644 23.994644-23.994644h828.957822c13.254184 0 23.994644 10.74046 23.994644 23.994644V73.355055h-45.704084V45.704084H119.287659V978.295916h785.538942V146.253069h45.704084V1000.005356c-0.11426 13.254184-10.85472 23.994644-24.108904 23.994644z" p-id="2037" fill="#d81e06"></path><path d="M292.848918 315.586699c-53.016737 0-96.092836-43.076099-96.092837-96.092836 0-53.016737 43.076099-96.092836 96.092837-96.092836 53.016737 0 96.092836 43.076099 96.092836 96.092836 0 53.016737-43.190359 96.092836-96.092836 96.092836z m0-146.481589c-27.765231 0-50.388753 22.623522-50.388753 50.388753s22.623522 50.388753 50.388753 50.388752 50.388753-22.623522 50.388752-50.388752-22.623522-50.388753-50.388752-50.388753zM587.525999 854.552109h217.094398v45.704084h-217.094398zM586.383397 758.687793h217.094398v45.704084h-217.094398zM586.383397 651.854497h217.094398v45.704084h-217.094398z" p-id="2038" fill="#d81e06"></path></svg>