<?xml version="1.0" standalone="no"?><!DOCTYPE svg PUBLIC "-//W3C//DTD SVG 1.1//EN" "http://www.w3.org/Graphics/SVG/1.1/DTD/svg11.dtd"><svg t="1556176918878" class="icon" style="" viewBox="0 0 1024 1024" version="1.1" xmlns="http://www.w3.org/2000/svg" p-id="2008" xmlns:xlink="http://www.w3.org/1999/xlink" width="128" height="128"><defs><style type="text/css"></style></defs><path d="M1011.165184 318.12608l-242.13504 242.137088c-17.11104 17.113088-43.634688 17.113088-60.747776 0L467.001344 318.12608c-17.113088-17.113088-17.113088-43.634688 0-60.747776L709.136384 16.09728c17.113088-17.113088 43.636736-17.113088 60.747776 0l241.281024 242.13504c17.113088 16.259072 17.113088 43.636736 0 59.89376zM388.286464 1024H46.045184c-23.957504 0-42.780672-18.823168-42.780672-42.780672v-342.24128c0-23.957504 18.823168-42.780672 42.780672-42.780672h342.24128c23.957504 0 42.780672 18.823168 42.780672 42.780672v342.24128c0 23.957504-18.825216 42.780672-42.780672 42.780672z m0-513.36192H46.045184c-23.957504 0-42.780672-18.823168-42.780672-42.780672V125.616128c0-23.957504 18.823168-42.780672 42.780672-42.780672h342.24128c23.957504 0 42.780672 18.823168 42.780672 42.780672v342.24128c0 23.957504-18.825216 42.780672-42.780672 42.780672z m171.12064 85.559296h342.24128c23.957504 0 42.780672 18.823168 42.780672 42.780672v342.24128c0 23.957504-18.823168 42.780672-42.780672 42.780672h-342.24128c-23.957504 0-42.780672-18.823168-42.780672-42.780672v-342.24128c0-23.957504 18.823168-42.780672 42.780672-42.780672z" fill="#008080" p-id="2009"></path></svg>