<?xml version="1.0" standalone="no"?><!DOCTYPE svg PUBLIC "-//W3C//DTD SVG 1.1//EN" "http://www.w3.org/Graphics/SVG/1.1/DTD/svg11.dtd"><svg t="1557822754329" class="icon" style="" viewBox="0 0 1024 1024" version="1.1" xmlns="http://www.w3.org/2000/svg" p-id="8078" xmlns:xlink="http://www.w3.org/1999/xlink" width="200" height="200"><defs><style type="text/css"></style></defs><path d="M83.2 396.8c-6.4 0-19.2-6.4-19.2-19.2V211.2C64 128 134.4 64 211.2 64h179.2c12.8 0 19.2 6.4 19.2 19.2s0 19.2-12.8 19.2H211.2c-57.6 0-108.8 51.2-108.8 108.8v166.4c0 12.8-6.4 19.2-19.2 19.2zM403.2 960h-192C134.4 960 64 896 64 812.8V640c0-12.8 6.4-19.2 19.2-19.2s19.2 6.4 19.2 19.2v172.8c0 57.6 51.2 108.8 108.8 108.8h185.6c12.8 0 19.2 6.4 19.2 19.2s-6.4 19.2-12.8 19.2zM812.8 960h-192c-12.8 0-19.2-6.4-19.2-19.2s6.4-19.2 19.2-19.2h185.6c57.6 0 108.8-51.2 108.8-108.8V633.6c0-12.8 6.4-19.2 19.2-19.2s25.6 6.4 25.6 19.2v179.2c0 83.2-70.4 147.2-147.2 147.2zM940.8 396.8c-12.8 0-19.2-6.4-19.2-19.2V211.2c0-57.6-51.2-108.8-108.8-108.8h-192c-12.8 0-19.2-6.4-19.2-19.2s12.8-19.2 19.2-19.2h185.6C889.6 64 960 128 960 211.2v166.4c0 12.8-12.8 19.2-19.2 19.2zM940.8 531.2H83.2c-12.8 0-19.2-6.4-19.2-19.2s6.4-19.2 19.2-19.2h857.6c12.8 0 19.2 6.4 19.2 19.2s-6.4 19.2-19.2 19.2z" fill="#d81e06" p-id="8079"></path></svg>