<?xml version="1.0" standalone="no"?><!DOCTYPE svg PUBLIC "-//W3C//DTD SVG 1.1//EN" "http://www.w3.org/Graphics/SVG/1.1/DTD/svg11.dtd"><svg t="1557564718349" class="icon" style="" viewBox="0 0 1024 1024" version="1.1" xmlns="http://www.w3.org/2000/svg" p-id="1827" xmlns:xlink="http://www.w3.org/1999/xlink" width="200" height="200"><defs><style type="text/css"></style></defs><path d="M448 480H96A32 32 0 0 1 64 448V96a32 32 0 0 1 32-32H448a32 32 0 0 1 32 32V448a32 32 0 0 1-32 32z m-320-64h288V128H128zM928 480H576a32 32 0 0 1-32-32V96A32 32 0 0 1 576 64h352a32 32 0 0 1 32 32V448a32 32 0 0 1-32 32z m-320-64H896V128H608zM448 960H96a32 32 0 0 1-32-32V576a32 32 0 0 1 32-32H448a32 32 0 0 1 32 32v352a32 32 0 0 1-32 32z m-320-64h288V608H128zM928 960H576a32 32 0 0 1-32-32V576a32 32 0 0 1 32-32h352a32 32 0 0 1 32 32v352a32 32 0 0 1-32 32z m-320-64H896V608H608z" p-id="1828" fill="#d81e06"></path></svg>