<?xml version="1.0" standalone="no"?><!DOCTYPE svg PUBLIC "-//W3C//DTD SVG 1.1//EN" "http://www.w3.org/Graphics/SVG/1.1/DTD/svg11.dtd"><svg t="1557191229141" class="icon" style="" viewBox="0 0 1024 1024" version="1.1" xmlns="http://www.w3.org/2000/svg" p-id="1557" xmlns:xlink="http://www.w3.org/1999/xlink" width="128" height="128"><defs><style type="text/css"></style></defs><path d="M769.28 482.688a261.76 261.76 0 0 1 176.128 246.912 19.84 19.84 0 1 1-39.808 0A221.952 221.952 0 0 0 638.72 512.64a179.968 179.968 0 0 1-39.936 32.384 299.136 299.136 0 0 1 207.232 284.16 19.84 19.84 0 1 1-39.808 0 259.2 259.2 0 0 0-232.832-257.472c-1.472-0.192-3.008-0.128-4.48-0.256a265.408 265.408 0 0 0-21.568-1.088c-8.96 0-17.792 0.448-26.56 1.344-1.792 0.192-3.584 0.64-5.44 0.832a259.072 259.072 0 0 0-226.816 256.64 19.84 19.84 0 1 1-39.808 0 299.136 299.136 0 0 1 207.232-284.16 180.032 180.032 0 0 1-38.336-30.592 220.48 220.48 0 0 0-52.096-6.4A221.952 221.952 0 0 0 103.808 729.6a19.904 19.904 0 1 1-39.808 0 261.76 261.76 0 0 1 176.128-246.912 157.888 157.888 0 0 1-72.576-132.736A158.08 158.08 0 0 1 325.504 192c39.36 0 75.328 14.528 102.976 38.4a177.728 177.728 0 0 1 154.24-1.664c27.456-22.912 62.72-36.736 101.12-36.736a158.08 158.08 0 0 1 158.016 157.952c0 55.68-28.992 104.576-72.64 132.736z m-85.376-14.592a118.272 118.272 0 0 0 118.144-118.144 118.272 118.272 0 0 0-118.144-118.144c-23.936 0-46.144 7.232-64.768 19.456a177.984 177.984 0 0 1 50.304 215.872c4.736 0.576 9.6 0.96 14.464 0.96z m-52.992-12.736A139.136 139.136 0 0 0 554.24 259.968a138.112 138.112 0 0 0-132.672 21.504 138.496 138.496 0 0 0-38.848 171.712A139.392 139.392 0 0 0 507.328 530.56c2.688 0 5.248-0.256 7.872-0.384a138.88 138.88 0 0 0 115.712-74.752z m-305.408 12.736c6.656 0 13.12-0.64 19.456-1.728a177.728 177.728 0 0 1-16.832-75.264c0-55.424 25.344-104.96 64.96-137.92-19.2-13.44-42.432-21.376-67.584-21.376A118.272 118.272 0 0 0 207.36 349.952c0 65.152 52.992 118.144 118.144 118.144z" p-id="1558" fill="#1afa29"></path></svg>