<?xml version="1.0" standalone="no"?><!DOCTYPE svg PUBLIC "-//W3C//DTD SVG 1.1//EN" "http://www.w3.org/Graphics/SVG/1.1/DTD/svg11.dtd"><svg t="1557471871839" class="icon" style="" viewBox="0 0 1085 1024" version="1.1" xmlns="http://www.w3.org/2000/svg" p-id="2841" xmlns:xlink="http://www.w3.org/1999/xlink" width="135.625" height="128"><defs><style type="text/css"></style></defs><path d="M412.18048 0H86.75328C38.879232 0 0 38.0928 0 85.082112v297.762816c0 46.997504 38.875136 85.090304 86.75328 85.090304H498.97472V85.090304C498.970624 38.0928 460.132352 0 412.176384 0z m21.7088 404.13184H130.19136c-35.9424 0-65.114112-28.606464-65.114112-63.81568V127.619072c0-35.237888 29.171712-63.811584 65.114112-63.811584h238.624768c35.946496 0 65.081344 28.573696 65.081344 63.81568v276.512768zM997.974016 0h-325.414912c-47.951872 0-86.79424 38.0928-86.79424 85.082112v382.85312h412.209152c47.886336 0 86.765568-38.0928 86.765568-85.090304V85.090304C1084.727296 38.0928 1045.856256 0 997.96992 0z m21.684224 340.320256c0 35.201024-29.167616 63.803392-65.114112 63.803392h-303.706112V127.614976c0-35.237888 29.134848-63.811584 65.081344-63.811584h238.624768c35.9424 0 65.114112 28.573696 65.114112 63.81568v212.701184zM0 638.07488v297.75872c0 46.997504 38.875136 85.090304 86.75328 85.090304h325.423104c47.947776 0 86.79424-38.0928 86.79424-85.090304v-382.840832H86.757376C38.87104 552.992768 0 591.077376 0 638.07488z m433.88928-21.27872v276.512768c0 35.233792-29.130752 63.803392-65.077248 63.803392H130.187264c-35.9424 0-65.110016-28.5696-65.110016-63.803392v-212.70528c0-35.201024 29.16352-63.807488 65.110016-63.807488h303.706112z m564.08064-63.803392H585.760768v382.840832c0 46.997504 38.842368 85.090304 86.79424 85.090304h325.414912c47.886336 0 86.765568-38.0928 86.765568-85.090304V638.07488c-0.008192-46.997504-38.879232-85.082112-86.765568-85.082112z" fill="#00479D" p-id="2842"></path></svg>