<?xml version="1.0" standalone="no"?><!DOCTYPE svg PUBLIC "-//W3C//DTD SVG 1.1//EN" "http://www.w3.org/Graphics/SVG/1.1/DTD/svg11.dtd"><svg t="1557744057029" class="icon" style="" viewBox="0 0 1061 1024" version="1.1" xmlns="http://www.w3.org/2000/svg" p-id="16181" xmlns:xlink="http://www.w3.org/1999/xlink" width="207.2265625" height="200"><defs><style type="text/css"></style></defs><path d="M991.418182 646.981818l27.927273 0 0 27.927273-27.927273 0 0-27.927273Z" p-id="16182" fill="#d81e06"></path><path d="M493.381818 758.690909 493.381818 758.690909 493.381818 758.690909Z" p-id="16183" fill="#d81e06"></path><path d="M1005.381818 428.218182c-9.309091 0-13.963636 4.654545-13.963636 13.963636l0 0 0 479.418182c0 27.927273-32.581818 74.472727-74.472727 74.472727L102.4 996.072727c-37.236364 0-74.472727-32.581818-74.472727-74.472727L27.927273 134.981818c0-37.236364 32.581818-74.472727 74.472727-74.472727l525.963636 0 0 0c0 0 0 0 0 0 9.309091 0 13.963636-4.654545 13.963636-13.963636 0-9.309091-4.654545-13.963636-13.963636-13.963636 0 0 0 0 0 0l0 0L102.4 32.581818C46.545455 32.581818 0 79.127273 0 134.981818l0 786.618182C0 977.454545 46.545455 1024 102.4 1024l814.545455 0c55.854545 0 102.4-46.545455 102.4-102.4L1019.345455 442.181818l0 0C1019.345455 432.872727 1010.036364 428.218182 1005.381818 428.218182z" p-id="16184" fill="#d81e06"></path><path d="M861.090909 23.272727l-512 512-51.2 200.145455 0 9.309091c0 9.309091 4.654545 13.963636 9.309091 18.618182 4.654545 0 9.309091 0 9.309091 0l209.454545-55.854545 512-507.345455c32.581818-32.581818 27.927273-83.781818-4.654545-116.363636l-46.545455-46.545455C940.218182-4.654545 889.018182-9.309091 861.090909 23.272727zM935.563636 246.690909l-414.254545 414.254545-130.327273-130.327273 414.254545-414.254545L935.563636 246.690909zM1005.381818 93.090909c18.618182 18.618182 23.272727 60.509091 4.654545 74.472727l-55.854545 55.854545-130.327273-130.327273 55.854545-55.854545c23.272727-23.272727 55.854545-13.963636 74.472727 4.654545L1005.381818 93.090909z" p-id="16185" fill="#d81e06"></path></svg>