<?xml version="1.0" standalone="no"?><!DOCTYPE svg PUBLIC "-//W3C//DTD SVG 1.1//EN" "http://www.w3.org/Graphics/SVG/1.1/DTD/svg11.dtd"><svg t="1557819764787" class="icon" style="" viewBox="0 0 1024 1024" version="1.1" xmlns="http://www.w3.org/2000/svg" p-id="1590" xmlns:xlink="http://www.w3.org/1999/xlink" width="200" height="200"><defs><style type="text/css"></style></defs><path d="M408.3 648.8c-17 0-30.4 13.3-30.4 30.4 0 17 13.3 30.4 30.4 30.4h73.3V753c0 17 13.3 30.4 30.4 30.4 16.7 0 30.4-13.6 30.4-30.4v-43.5h73.3c17 0 30.4-13.3 30.4-30.4 0-17-13.3-30.4-30.4-30.4h-73.3v-27.4h73.3c17 0 30.4-13.3 30.4-30.4 0-17-13.3-30.4-30.4-30.4h-64l70.9-71.9c5.7-5.4 9-12.7 9.1-20.6 0.2-8-3-16-8.7-21.9-5.2-6-13.1-9.4-21.7-9.4-8.2 0-15.3 3-21.4 9.1l-68.1 68.7-68.4-67.8c-5.2-5.9-13-9.3-21.6-9.3-8 0-15.1 2.9-21 8.7-6 5.2-9.4 13.1-9.4 21.7 0 8.2 3 15.3 9 21.3l71.4 71.4h-63.7c-17 0-30.4 13.3-30.4 30.4 0 17 13.3 30.4 30.4 30.4h73.3v27.4h-73.1z" fill="#d81e06" p-id="1591"></path><path d="M912.3 668.4c-2.9-76.2-33.7-149.5-91.4-218-45.5-53.9-98-93.1-134.2-116.6 28.1-31.1 47-67.5 51.9-100.1 4.4-27.9-1.7-53.5-17.7-73.8-20.1-26-44.3-31.5-61.1-31.5-17.9 0-36.7 6-54.5 17.5-17.1-22.6-47-49.2-93.3-49.2h-1.5c-48 0.7-77.8 30.7-91.6 49-18.9-11.4-37-17.2-54-17.2-16.8 0-41 5.4-61 31.4-16.4 20.2-22.8 45.7-18.4 73.9 6.8 43.7 35.2 81.2 51.9 100.1-29.4 18.7-85.6 58.6-134.3 116.3-57.8 68.5-88.5 142-91.4 218.3-2.7 85.8 18 152.3 61.4 197.8 53 55.1 123.3 61 151.1 61H700c27.8 0 98.1-5.9 151-61 44-45.5 64.6-112.1 61.3-197.9zM678 224.8c-4.7 34-35.6 70.4-54.5 85.9l-2.4-0.7h-0.8c-0.9-0.3-2.3-0.6-4-0.6H407.6c-2.4 0-4.4 0.6-5.9 1.1-0.5 0.2-1.1 0.3-1.7 0.5-18.8-15.2-50-51.9-54.8-86.2v-0.3c-2-11.6-0.3-20.3 5.4-27.5 6.9-8.3 11.4-8.3 13.6-8.3 13.2 0 32.8 15.3 40.4 23.6 5.7 6.5 13.6 10.1 22.4 10.1 2 0 3.6-0.4 4.6-0.6h0.4l1.1-0.2c10.1-2 18.2-8.9 22.3-19l0.2-0.5c0.2-0.4 16.6-44 55.1-44.5h1.3c38.1 0 54.8 42 55.7 44.4 3 9.5 11.1 16.9 21.3 19.3 3 1.1 5.6 1.1 7.2 1.1 7.8 0 15.8-3.5 22-9.7l0.3-0.3c7.6-8.3 27.2-23.7 40.5-23.7 3.6 0 7.7 0.6 13.3 7.9 5.4 7.4 7.2 16.3 5.7 28.2zM398.3 368.2l0.8 0.2c0.5 0.1 0.9 0.2 1.4 0.4 2.3 0.6 4.8 1.3 7.7 1.3h208.6c3.4 0 6.3-0.9 8.5-1.6h0.1l0.4 0.2c10.5 5.7 65.4 36.7 119.3 89.9 67.9 67 103.7 138.6 106.3 212.6 2.5 68.7-12.4 120.3-44.2 153.3-36.7 37.9-87.4 42-107.5 42H324c-20.1 0-70.8-4.1-107.5-42-31.8-33.1-46.7-84.9-44.3-154 6.9-174.9 202.7-289.3 226.1-302.3z" fill="#d81e06" p-id="1592"></path></svg>