<?xml version="1.0" standalone="no"?><!DOCTYPE svg PUBLIC "-//W3C//DTD SVG 1.1//EN" "http://www.w3.org/Graphics/SVG/1.1/DTD/svg11.dtd"><svg t="1557741355886" class="icon" style="" viewBox="0 0 1024 1024" version="1.1" xmlns="http://www.w3.org/2000/svg" p-id="12345" xmlns:xlink="http://www.w3.org/1999/xlink" width="200" height="200"><defs><style type="text/css"></style></defs><path d="M512 81.92C256 81.92 49.152 264.192 49.152 487.424c0 129.024 67.584 241.664 174.08 317.44l-4.096 200.704 202.752-120.832c28.672 4.096 61.44 10.24 90.112 10.24 256 0 462.848-182.272 462.848-405.504C974.848 264.192 768 81.92 512 81.92L512 81.92zM747.52 444.416c-32.768 0-57.344 26.624-57.344 57.344 0 32.768 26.624 57.344 57.344 57.344 32.768 0 57.344-26.624 57.344-57.344C804.864 468.992 778.24 444.416 747.52 444.416L747.52 444.416zM509.952 851.968c-34.816 0-67.584-4.096-100.352-10.24l-145.408 81.92 2.048-141.312C157.696 716.8 90.112 608.256 90.112 487.424 90.112 290.816 278.528 122.88 509.952 122.88c229.376 0 423.936 167.936 423.936 364.544C933.888 686.08 739.328 851.968 509.952 851.968L509.952 851.968zM514.048 444.416c-32.768 0-57.344 26.624-57.344 57.344 0 32.768 26.624 57.344 57.344 57.344 32.768 0 57.344-26.624 57.344-57.344C573.44 468.992 546.816 444.416 514.048 444.416L514.048 444.416zM282.624 444.416c-32.768 0-57.344 26.624-57.344 57.344 0 32.768 26.624 57.344 57.344 57.344 32.768 0 57.344-26.624 57.344-57.344C342.016 468.992 315.392 444.416 282.624 444.416L282.624 444.416zM282.624 444.416" p-id="12346" fill="#d81e06"></path></svg>