<?xml version="1.0" standalone="no"?><!DOCTYPE svg PUBLIC "-//W3C//DTD SVG 1.1//EN" "http://www.w3.org/Graphics/SVG/1.1/DTD/svg11.dtd"><svg t="1557821108252" class="icon" style="" viewBox="0 0 1024 1024" version="1.1" xmlns="http://www.w3.org/2000/svg" p-id="3268" xmlns:xlink="http://www.w3.org/1999/xlink" width="200" height="200"><defs><style type="text/css"></style></defs><path d="M512 0C230.008471 0 0 230.008471 0 512s230.008471 512 512 512 512-230.008471 512-512S793.991529 0 512 0z m226.846118 587.956706c48.64 0 48.730353 68.276706 0 68.276706h-195.915294v157.786353c0 48.64-68.276706 48.730353-68.276706 0v-157.786353H285.153882c-48.609882 0-48.730353-68.276706 0-68.276706h189.470118v-72.131765H285.153882c-48.609882 0-48.730353-68.276706 0-68.276706h153.088l-167.454117-217.088c-29.726118-38.520471 24.094118-80.173176 53.850353-41.622588l184.139294 238.682353 184.169412-238.682353c29.726118-38.520471 83.606588 3.041882 53.850352 41.622588l-167.484235 217.088h159.533177c48.64 0 48.730353 68.276706 0 68.276706h-195.915294v72.131765h195.915294z" fill="#f4ea2a" p-id="3269"></path></svg>