<?xml version="1.0" standalone="no"?><!DOCTYPE svg PUBLIC "-//W3C//DTD SVG 1.1//EN" "http://www.w3.org/Graphics/SVG/1.1/DTD/svg11.dtd"><svg t="1557738116158" class="icon" style="" viewBox="0 0 1024 1024" version="1.1" xmlns="http://www.w3.org/2000/svg" p-id="8708" xmlns:xlink="http://www.w3.org/1999/xlink" width="200" height="200"><defs><style type="text/css"></style></defs><path d="M664.5 102.4h-305c-10.5 0-19.1-8.5-19.1-19.1s8.5-19.1 19.1-19.1h305.1c10.5 0 19.1 8.5 19.1 19.1s-8.6 19.1-19.2 19.1zM664.5 617.1H512c-10.5 0-19.1-8.5-19.1-19.1V388.3c0-10.5 8.5-19.1 19.1-19.1s19.1 8.5 19.1 19.1V579h133.5c10.5 0 19.1 8.5 19.1 19.1s-8.6 19-19.2 19z" fill="#d81e06" p-id="8709"></path><path d="M512 198.2c199.5 0 361.8 162.3 361.8 361.8S711.5 921.8 512 921.8 150.2 759.4 150.2 559.9c0-199.4 162.3-361.7 361.8-361.7m0-38.2c-220.9 0-399.9 179-399.9 399.9s179 399.9 399.9 399.9c220.9 0 399.9-179 399.9-399.9S732.9 160 512 160z" fill="#d81e06" p-id="8710"></path></svg>