<?xml version="1.0" standalone="no"?><!DOCTYPE svg PUBLIC "-//W3C//DTD SVG 1.1//EN" "http://www.w3.org/Graphics/SVG/1.1/DTD/svg11.dtd"><svg t="1557820349917" class="icon" style="" viewBox="0 0 1024 1024" version="1.1" xmlns="http://www.w3.org/2000/svg" p-id="2438" xmlns:xlink="http://www.w3.org/1999/xlink" width="200" height="200"><defs><style type="text/css"></style></defs><path d="M515.244027 13.71306c-277.006703 0-501.552642 224.545939-501.552642 501.545417 0 276.977803 224.545939 501.516517 501.552642 501.516517 276.992253 0 501.530967-224.538714 501.530967-501.516517C1016.774995 238.266225 792.23628 13.71306 515.244027 13.71306zM515.244027 992.325577c-263.488718 0-477.088774-213.592831-477.088774-477.059874 0-263.481493 213.592831-477.074324 477.088774-477.074324 263.488718 0 477.074324 213.592831 477.074324 477.074324C992.325577 778.732745 778.732745 992.325577 515.244027 992.325577z" p-id="2439" fill="#f4ea2a"></path><path d="M515.236802 515.244027" p-id="2440" fill="#f4ea2a"></path><path d="M656.955281 324.424413c11.444408-14.724561 32.830424-50.293262 30.142722-81.519735-1.929076-22.448091-26.754195-48.161885-49.209511-50.921837-31.472123-3.952078-57.850617 9.276907-80.522684 20.735765-14.970211 7.557356-29.123996 14.688436-41.897806 14.688436l-0.01445 0c-0.166175 0.021675-1.741226 0.0289-1.835151 0.0289-12.701559 0-26.64582-7.094955-41.406505-14.623411-18.207013-9.269682-38.834403-19.782064-62.676921-19.782064-5.960629 0-11.957384 0.67915-17.809638 1.986876-24.760093 5.584929-47.164835 28.285896-48.934961 49.541861-2.550427 30.511197 19.045114 65.371848 30.634022 79.886884-94.387469 42.511931-150.402935 134.291173-150.402935 247.456431 0 142.412079 136.5237 267.325196 292.171989 267.325196 155.684414 0 292.244239-124.913116 292.244239-267.325196C807.444916 458.701136 751.3861 366.914669 656.955281 324.424413zM515.200677 815.002272c-126.647118 0-267.758696-99.835123-267.758696-243.092528 0-106.467678 53.847964-192.004516 144.052156-228.808693 4.580653-1.864051 7.564581-6.29298 7.564581-11.205983l0-10.562958c0-3.359627-1.401651-6.560305-3.872603-8.865081-6.16293-5.714979-30.164397-40.785155-28.061921-65.906498 0.809201-9.753757 14.377761-24.377168 30.005447-27.90297 4.139928-0.932026 8.193156-1.387201 12.405334-1.387201 17.939688 0 35.012376 8.691681 51.521513 17.101588 16.696987 8.518281 33.957525 17.311113 52.561913 17.311113l2.470952-0.021675c17.975813 0 34.6728-8.417131 52.337938-17.325563 20.71409-10.461808 41.998956-21.277641 66.433924-18.293713 11.668384 1.445001 27.043195 18.994539 27.90297 28.936146 2.225302 25.959444-21.573866 61.874945-27.70067 67.71275-2.391477 2.275877-3.764228 5.447654-3.764228 8.742256l0 10.440133c0 4.920229 2.991152 9.341932 7.564581 11.213208 90.269216 36.789727 144.146081 122.33379 144.146081 228.830368C783.024399 715.159924 641.86947 815.002272 515.200677 815.002272z" p-id="2441" fill="#f4ea2a"></path><path d="M606.394694 620.92418 528.256262 620.92418l0-38.877753L606.394694 582.046426c7.196105 0 13.026685-5.801679 13.026685-12.968884 0-7.152755-5.830579-12.954434-13.026685-12.954434l-68.702575 0 75.082255-65.003373c0.455175-0.3468 0.888676-0.715276 1.307726-1.119876 5.339279-5.324829 5.339279-13.95871 0-19.283539-5.353729-5.317604-14.03096-5.317604-19.377464 0l-79.872434 69.150526-77.090806-66.231624c-5.079179-5.057504-13.330135-5.057504-18.416538 0-5.086404 5.064729-5.086404 13.26511 0 18.329838 0.41905 0.411825 0.845326 0.765851 1.300501 1.112651l73.369929 63.038171-69.930826 0c-7.196105 0-13.026685 5.801679-13.026685 12.954434 0 7.167205 5.830579 12.968884 13.026685 12.968884L502.210118 582.039201l0 38.877753L424.064461 620.916955c-7.196105 0-13.026685 5.816129-13.026685 12.968884s5.830579 12.954434 13.026685 12.954434L502.210118 646.840274l0 64.801072c0 7.167205 5.830579 12.968884 13.01946 12.968884 7.196105 0 13.03391-5.801679 13.03391-12.968884l0-64.801072L606.394694 646.840274c7.196105 0 13.026685-5.801679 13.026685-12.954434S613.590799 620.92418 606.394694 620.92418L606.394694 620.92418z" p-id="2442" fill="#f4ea2a"></path><path d="M448.116503 402.19437c3.547478 6.50973 9.840457 10.570183 16.436887 10.570183l13.864785 0c4.436153 31.110873 21.494391 38.415353 36.551302 38.819953 25.070768 0 30.857998-22.989967 32.548649-38.819953l19.363014 0c6.62533 0 12.903859-4.385578 16.003387-11.155408 3.424653-7.499555 2.275877-15.858887-2.355352-21.03199l-40.308305-56.304466c-5.881154-9.862132-15.490411-15.750512-25.822169-15.750512l-0.01445 0c-0.065025 0-0.4335-0.021675-0.4913-0.021675-10.216157 0-19.83264 5.902829-25.432019 15.309786l-40.207154 59.599069C444.756876 388.69806 444.706301 395.90139 448.116503 402.19437zM504.991745 334.156495c2.326452-3.915953 5.649954-6.24963 8.893982-6.24963l0.614125 0c3.251252 0 6.56753 2.333677 9.341932 6.92878l40.756255 56.969167c0.13005 0.180625 0.10115 0.997051 0.137275 1.575051l0 0.007225-26.277344 0c-5.194779 0-9.508107 4.754053-9.789882 9.898257-1.141551 21.07534-4.847979 28.914471-14.18991 28.914471l-0.01445 0c-7.795781-0.21675-15.967262-3.908728-17.412263-29.651422-0.281775-5.144204-4.566203-9.161307-9.753757-9.161307l-21.653341-0.903126L504.991745 334.156495z" p-id="2443" fill="#f4ea2a"></path><path d="M465.731066 366.712369" p-id="2444" fill="#f4ea2a"></path></svg>