<?xml version="1.0" standalone="no"?><!DOCTYPE svg PUBLIC "-//W3C//DTD SVG 1.1//EN" "http://www.w3.org/Graphics/SVG/1.1/DTD/svg11.dtd"><svg t="1556252863429" class="icon" style="" viewBox="0 0 1024 1024" version="1.1" xmlns="http://www.w3.org/2000/svg" p-id="4594" xmlns:xlink="http://www.w3.org/1999/xlink" width="128" height="128"><defs><style type="text/css"></style></defs><path d="M256 341.333333h512A256 256 0 1 0 256 341.333333z m597.333333 0h14.208C906.794667 341.333333 938.666667 373.504 938.666667 413.269333v538.88c0 39.637333-31.872 71.850667-71.125334 71.850667H156.458667C117.205333 1024 85.333333 991.786667 85.333333 952.064V413.269333C85.333333 373.504 117.205333 341.333333 156.458667 341.333333H170.666667a341.333333 341.333333 0 1 1 682.666666 0z m-422.101333 448.170667l243.114667-243.114667a52.736 52.736 0 0 0 0-74.752 52.821333 52.821333 0 0 0-74.794667 0L356.437333 714.666667l-21.589333 70.826666a17.578667 17.578667 0 0 0 20.992 22.229334l75.392-18.261334z m-86.4 66.133333a26.410667 26.410667 0 1 0 0 52.821334h334.336a26.410667 26.410667 0 0 0 0-52.778667H344.832z" fill="#d81e06" p-id="4595"></path></svg>