<?xml version="1.0" standalone="no"?><!DOCTYPE svg PUBLIC "-//W3C//DTD SVG 1.1//EN" "http://www.w3.org/Graphics/SVG/1.1/DTD/svg11.dtd"><svg t="1556251843701" class="icon" style="" viewBox="0 0 1069 1024" version="1.1" xmlns="http://www.w3.org/2000/svg" p-id="2482" xmlns:xlink="http://www.w3.org/1999/xlink" width="133.625" height="128"><defs><style type="text/css"></style></defs><path d="M200.152 753.113l38.67-155.415 116.204 116.603-154.875 38.813zM384.3 685.157l-116.204-116.589 348.582-349.783 116.177 116.589-348.556 349.782zM761.911 306.23l-116.191-116.589 87.136-87.446c16.054-16.101 42.055-16.101 58.095 0l58.095 58.302c16.040 16.087 16.040 42.188 0 58.288l-87.136 87.446zM929.29 921.311h-797.894c-22.795-0.001-41.271-18.577-41.271-41.496 0-22.92 18.475-41.497 41.271-41.497h797.894c22.794 0 41.271 18.577 41.271 41.496s-18.476 41.496-41.271 41.496z" p-id="2483" fill="#13227a"></path></svg>