<?xml version="1.0" standalone="no"?><!DOCTYPE svg PUBLIC "-//W3C//DTD SVG 1.1//EN" "http://www.w3.org/Graphics/SVG/1.1/DTD/svg11.dtd"><svg t="1557192999221" class="icon" style="" viewBox="0 0 1024 1024" version="1.1" xmlns="http://www.w3.org/2000/svg" p-id="2280" xmlns:xlink="http://www.w3.org/1999/xlink" width="128" height="128"><defs><style type="text/css"></style></defs><path d="M815.104 368.64a282.624 282.624 0 1 0-282.624 282.624A283.0336 283.0336 0 0 0 815.104 368.64z m-282.99264-220.81536a219.62752 219.62752 0 0 1 156.8768 64.512 220.89728 220.89728 0 0 1 64.67584 156.4672A221.10208 221.10208 0 0 1 532.48 589.824a221.10208 221.10208 0 0 1-221.184-221.02016 221.10208 221.10208 0 0 1 220.81536-220.9792z" fill="#d4237a" p-id="2281"></path><path d="M912.01536 942.08h3.52256c16.09728-1.55648 27.81184-16.26112 26.4192-33.13664-9.216-119.35744-64.63488-229.25312-153.27232-303.7184a27.77088 27.77088 0 0 0-28.2624-6.51264 30.35136 30.35136 0 0 0-19.74272 22.85568 32.1536 32.1536 0 0 0 8.56064 29.36832c77.16864 64.55296 125.7472 159.78496 134.3488 263.45472 1.39264 15.64672 13.68064 27.56608 28.42624 27.68896zM180.18304 914.51392c9.4208-144.75264 96.0512-270.90944 222.4128-324.36224-4.87424 2.8672-15.60576-23.26528-17.2032-27.0336-6.06208-14.58176-26.78784-19.21024-37.0688-13.63968-128.36864 69.38624-214.46656 205.2096-225.32096 359.54688-1.39264 16.75264 10.28096 31.5392 25.64096 33.05472h3.15392c14.7456-0.16384 26.99264-12.0832 28.38528-27.56608z" fill="#d4237a" p-id="2282"></path></svg>