<?xml version="1.0" standalone="no"?><!DOCTYPE svg PUBLIC "-//W3C//DTD SVG 1.1//EN" "http://www.w3.org/Graphics/SVG/1.1/DTD/svg11.dtd"><svg t="1557564875220" class="icon" style="" viewBox="0 0 1024 1024" version="1.1" xmlns="http://www.w3.org/2000/svg" p-id="2114" xmlns:xlink="http://www.w3.org/1999/xlink" width="200" height="200"><defs><style type="text/css"></style></defs><path d="M932.8 443c-18.1-19.1-37.2-37.3-57.1-54.5-18.6-16.2-27.9-34.4-26.9-60.7 1.9-64-0.9-127.6 1.4-191.7 1.4-39.2-26-66.4-53.4-70.3-24.2-3.3-50.2-2.9-74.3 1.9-38.1 8.1-48.3 24.4-51.1 65-0.9 12.9-2.8 25.3-5.1 46.8-20.4-20.6-34.4-36.3-50.2-50.2-63.6-57.4-126.8-62.1-189.1-4.8C313.9 228.4 202.9 335 91.4 440.6c-22.8 22-35.8 70.3-18.1 94.2 13.5 18.2 38.1 29.6 59.5 39.7 14.9 7.2 20.9 14.8 20.9 31.5 0.9 83.6 3.3 167.8 4.6 251.4 0.9 63.1 35.8 100.4 96.6 100.8 164.9 0.5 329.9 0.5 494.3 0 66.9 0 104.1-40.1 103.6-110.4-0.5-66.4-1.4-132.4-1.9-198.8-0.5-55.4 0.5-52.6 50.6-73.6 62.4-26.7 80-79.8 31.3-132.4zM573.6 712.1c-22.8 35.8-43.2 72.6-46.5 117.1-1.4 21.5-16.3 30.1-33.9 25.3-29.3-7.6-59-16.2-85.5-30.6-33.4-18.2-33.4-23.9-20.4-61.7-55.8 16.7-55.8 16.7-82.7-36.8-16.3-32-16.3-33 10.2-55.4 34.8-29.6 69.7-59.7 103.6-90.3 13-11.5 25.6-12.9 39-2.9 36.7 27.2 73.4 54.5 109.6 82.7 23.8 18.2 23.4 26.3 6.6 52.6z m115.7-272.4c-28.3 33-56.2 66.9-85.9 98.9-11.6 12.9-15.8 22.5-7.9 41.1 9.8 24.4 17.7 52.1-3.3 81.3-48.3-37.8-94.8-74.1-143.1-111.4 20.9-21 45.1-30.1 65-23.4 43.2 14.8 61.3-14.8 83.2-40.6 20.9-24.4 41.8-48.7 63.2-72.6 8.8-10 20-20.1 33-8.1 14.4 12.8 4.6 24.3-4.2 34.8z m0 0" p-id="2115" fill="#d4237a"></path></svg>